# xmcd CD database file
#
# Track frame offsets:
#	150
#	15322
#	33397
#	47071
#	65044
#	79934
#	97312
#	111839
#	130739
#	147280
#	157662
#	174633
#	185532
#	196095
#	210979
#	225761
#
# Disc length: 3243 seconds
#
# Revision: 1
# Processed by: cddbd v1.5.1PL2 Copyright (c) Steve Scherf et al.
# Submitted via: CDex 1.51
#
DISCID=cc0ca910
DTITLE=Various Artist - That's New Country Vol. 3
DYEAR=1999
DGENRE=Country
TTITLE0=George Jones - Real Deal
TTITLE1=Lonestar - Amazed
TTITLE2=Deryl Dodd - Good Idea Tomorrow
TTITLE3=Chely Wright - Some Kind Of Somethin'
TTITLE4=Brad Paisley - Long Sermon
TTITLE5=Allison Moorer - A Soft Place To Fall
TTITLE6=Marty Stuart - Goin' Nowhere Fast 
TTITLE7=Alabama - Twentieth Century
TTITLE8=Joe Diffie - You Cant Go Home
TTITLE9=George Jones - Ain't Love A Lot Like That 
TTITLE10=Shania Twain - Honey I'm Home (live)
TTITLE11=John Michael Montgomery - Hello L.O.V.E.
TTITLE12=Allison Moorer - The One That Got Way 
TTITLE13=Tim McGraw - Seventeen
TTITLE14=Lonestar - Don't Lets Talk About Lisa 
TTITLE15=Shania Twain - That Don't Impress Me Much (Dance Version)
EXTD=YEAR: 1999
EXTT0=
EXTT1=
EXTT2=
EXTT3=
EXTT4=
EXTT5=
EXTT6=
EXTT7=
EXTT8=
EXTT9=
EXTT10=
EXTT11=
EXTT12=
EXTT13=
EXTT14=
EXTT15=
PLAYORDER=
